HIERARCHY
ROOT Hips
{
	OFFSET 0.00000 0.00000 0.00000
	CHANNELS 6 Xposition Yposition Zposition Zrotation Yrotation Xrotation 
	JOINT LHipJoint
	{
		OFFSET 0 0 0
		CHANNELS 3 Zrotation Yrotation Xrotation
		JOINT LeftHip
		{
			OFFSET 1.51378 -1.89840 0.47569
			CHANNELS 3 Zrotation Yrotation Xrotation
			JOINT LeftKnee
			{
				OFFSET 2.53380 -6.96157 0.00000
				CHANNELS 3 Zrotation Yrotation Xrotation
				JOINT LeftAnkle
				{
					OFFSET 2.74874 -7.55212 0.00000
					CHANNELS 3 Zrotation Yrotation Xrotation
					JOINT LeftToe
					{
						OFFSET 0.18263 -0.50178 1.99677
						CHANNELS 3 Zrotation Yrotation Xrotation
						End Site
						{
							OFFSET 0.00000 -0.00000 1.03711
						}
					}
				}
			}
		}
	}
	JOINT RHipJoint
	{
		OFFSET 0 0 0
		CHANNELS 3 Zrotation Yrotation Xrotation
		JOINT RightHip
		{
			OFFSET -1.43037 -1.89840 0.47569
			CHANNELS 3 Zrotation Yrotation Xrotation
			JOINT RightKnee
			{
				OFFSET -2.69849 -7.41406 0.00000
				CHANNELS 3 Zrotation Yrotation Xrotation
				JOINT RightAnkle
				{
					OFFSET -2.69369 -7.40087 0.00000
					CHANNELS 3 Zrotation Yrotation Xrotation
					JOINT RightToe
					{
						OFFSET -0.28932 -0.79491 2.04975
						CHANNELS 3 Zrotation Yrotation Xrotation
						End Site
						{
							OFFSET 0.00009 0.00010 1.09536
						}
					}
				}
			}
		}
	}
	JOINT lowerback
	{
		OFFSET 0 0 0
		CHANNELS 3 Zrotation Yrotation Xrotation
		JOINT Chest
		{
			OFFSET 0.01912 1.94784 -0.02419
			CHANNELS 3 Zrotation Yrotation Xrotation
			JOINT Chest2
			{
				OFFSET 0.07565 1.94258 0.01909
				CHANNELS 3 Zrotation Yrotation Xrotation
				JOINT lowerneck
				{
					OFFSET 0 0 0
					CHANNELS 3 Zrotation Yrotation Xrotation
					JOINT Neck
					{
						OFFSET -0.07010 1.86195 0.18976
						CHANNELS 3 Zrotation Yrotation Xrotation
						JOINT Head
						{
							OFFSET 0.02284 1.86595 -0.31497
							CHANNELS 3 Zrotation Yrotation Xrotation
							End Site
							{
								OFFSET 0.01200 1.90122 -0.12838
							}
						}
					}
				}
				JOINT LeftCollar
				{
					OFFSET 0 0 0
					CHANNELS 3 Zrotation Yrotation Xrotation
					JOINT LeftShoulder
					{
						OFFSET 3.39189 0.96331 -0.10437
CHANNELS 3 Zrotation Xrotation Yrotation
						JOINT LeftElbow
						{
OFFSET 0 -5.148450 0.000000
CHANNELS 3 Zrotation Xrotation Yrotation
							JOINT LeftWrist
							{
OFFSET 0 -3.436740 -0.000000
CHANNELS 3 Zrotation Xrotation Yrotation
								JOINT lhand
								{
									OFFSET 0 0 0
CHANNELS 3 Zrotation Xrotation Yrotation
									JOINT LFingers
									{
OFFSET 0 -0.588710 0.000000
CHANNELS 3 Zrotation Xrotation Yrotation
										End Site
										{
OFFSET 0 -0.474630 0.000000
										}
									}
								}
								JOINT LThumb
								{
OFFSET 0 0.000000 0.000000
CHANNELS 3 Zrotation Xrotation Yrotation
									End Site
									{
OFFSET 0 -0.481880 0.481880
									}
								}
							}
						}
					}
				}
				JOINT RightCollar
				{
					OFFSET 0 0 0
					CHANNELS 3 Zrotation Yrotation Xrotation
					JOINT RightShoulder
					{
						OFFSET -3.34934 1.18831 -0.19928
CHANNELS 3 Zrotation Xrotation Yrotation
						JOINT RightElbow
						{
OFFSET 0 -5.421850 0.000000
CHANNELS 3 Zrotation Xrotation Yrotation
							JOINT RightWrist
							{
OFFSET 0 -3.513170 -0.000000
CHANNELS 3 Zrotation Xrotation Yrotation
								JOINT rhand
								{
									OFFSET 0 0 0
CHANNELS 3 Zrotation Xrotation Yrotation
									JOINT RFingers
									{
OFFSET 0 -0.663190 0.000000
CHANNELS 3 Zrotation Xrotation Yrotation
										End Site
										{
OFFSET 0 -0.534680 0.000000
										}
									}
								}
								JOINT RThumb
								{
OFFSET 0 0.000000 0.000000
CHANNELS 3 Zrotation Xrotation Yrotation
									End Site
									{
OFFSET 0 -0.542840 0.542840
									}
								}
							}
						}
					}
				}
			}
		}
	}
}
MOTION
Frames: 10
Frame Time: 0.008333333333333333
0.563800 22.125316 -4.210558 -156.866451 -69.842035 177.033748 0.000000 0.000000 0.000000 -14.068689 -10.267052 -32.549997 3.259379 11.103518 32.629842 0.096710 -4.062909 -5.819218 0.254701 -3.246472 -8.965799 0.000000 0.000000 0.000000 19.582187 20.174179 -73.838504 -18.323944 -19.930804 85.093971 -2.069318 16.553103 -26.674228 -0.301198 3.507814 -9.697978 -0.532801 0.830640 7.877055 3.119942 1.091445 1.164768 3.420975 0.530912 -3.283373 -2.739036 1.888397 -11.308262 -1.845419 2.173217 36.351027 -0.097188 -0.303344 14.354696 0.000000 0.000000 0.000000 3.411169 7.242838 -19.954094 36.215412 -45.660738 15.676329 23.126219 0.284646 -19.619507 0.000000 0.000000 0.000000 -7.125000 0.000000 0.000000 -5.277286 51.092305 0.793929 0.000000 0.000000 0.000000 -4.843695 1.472517 27.657324 -33.339825 -43.589597 -13.655824 -32.523424 -13.315487 -15.770184 0.000000 0.000000 0.000000 7.125000 0.000000 0.000000 -3.199397 11.484458 -2.502349
-0.057940 22.093250 -4.572322 -154.598431 -72.977196 172.822960 0.000000 0.000000 0.000000 -14.123755 -9.915727 -28.957196 3.528950 11.505705 34.005099 0.072448 -7.425354 -6.702602 0.654969 -5.176470 -14.412700 0.000000 0.000000 0.000000 19.366432 21.251694 -70.604038 -15.012853 -19.392962 75.275454 -0.889024 16.539647 -19.109962 -0.020138 -0.246592 0.678251 -0.530009 0.637812 8.033056 3.323498 0.803379 1.858612 3.662096 0.365708 -2.635802 -2.094747 1.963516 -10.763780 -2.373039 2.267793 36.618003 -0.418075 -0.246947 14.374038 0.000000 0.000000 0.000000 3.690900 7.150436 -21.815807 35.608337 -45.241520 15.243762 23.349232 0.305932 -20.007494 0.000000 0.000000 0.000000 -7.125000 0.000000 0.000000 -5.162611 51.541065 0.833576 0.000000 0.000000 0.000000 -5.009926 1.529316 27.422811 -32.579263 -43.004138 -13.134276 -32.559888 -13.545090 -15.830721 0.000000 0.000000 0.000000 7.125000 0.000000 0.000000 -3.215232 11.407902 -2.519988
-0.685940 22.097309 -4.937954 -150.447177 -76.329017 167.906726 0.000000 0.000000 0.000000 -13.411843 -9.450962 -26.255684 3.544086 11.527685 34.080936 -0.176340 -12.257344 -5.934530 0.611592 -5.000813 -13.911904 0.000000 0.000000 0.000000 20.452942 21.747274 -66.766927 -15.541278 -19.516529 76.861882 -1.700286 11.690014 -23.571361 -0.497248 -4.520911 12.546848 -0.207431 0.391427 8.026789 3.685155 0.507973 1.819424 3.887936 0.215227 -2.653239 -2.246302 1.988698 -11.138872 -2.947654 2.587655 37.290689 -0.590136 -0.225104 14.797153 0.000000 0.000000 0.000000 2.164074 7.427991 -20.019243 33.223227 -43.500778 13.575593 23.249863 0.962284 -20.914188 0.000000 0.000000 0.000000 -7.125000 0.000000 0.000000 -5.526548 52.480570 1.018741 0.000000 0.000000 0.000000 -4.890452 1.817169 26.976171 -30.021002 -40.910958 -11.423506 -32.714262 -11.636004 -16.471137 0.000000 0.000000 0.000000 7.125000 0.000000 0.000000 -3.230350 10.642194 -2.582436
-1.341336 22.555144 -5.314060 -143.745518 -79.520476 161.542736 0.000000 0.000000 0.000000 -12.127694 -10.943420 -23.903275 3.065101 10.799637 31.607148 -0.341788 -10.491609 5.653484 0.302343 -3.483110 -9.631912 0.000000 0.000000 0.000000 21.581016 21.878237 -60.870635 -13.978317 -19.107124 72.138003 -2.294259 7.760814 -27.272198 -0.299720 -3.515511 9.717948 0.402501 0.083751 7.138011 4.373365 0.117911 1.957263 4.294444 0.002700 -1.988653 -3.265577 2.621664 -11.557580 -4.115450 4.310408 37.596412 -0.633272 0.201175 15.093491 0.000000 0.000000 0.000000 -0.084730 7.230240 -17.558769 28.915433 -39.945055 10.706513 22.945908 0.753259 -21.507776 0.000000 0.000000 0.000000 -7.125000 0.000000 0.000000 -6.021047 53.048134 1.194785 0.000000 0.000000 0.000000 -4.812143 0.952883 25.875627 -25.692989 -36.903018 -8.702991 -32.159610 -11.140015 -16.554919 0.000000 0.000000 0.000000 7.125000 0.000000 0.000000 -2.856963 10.651275 -2.282075
-1.873994 23.283122 -5.645756 -132.252364 -84.041760 148.884913 0.000000 0.000000 0.000000 -11.945935 -9.859264 -26.498833 4.669104 12.996360 39.363022 -0.185760 -8.154975 5.965039 0.990710 -6.333895 -17.756650 0.000000 0.000000 0.000000 22.713057 18.429999 -53.045205 -11.406187 -18.127449 64.092854 -2.328222 5.475215 -27.690039 -0.317978 -3.624298 10.022100 0.589629 0.186326 6.640581 3.862528 0.262461 2.010063 3.638071 0.082074 -1.664890 -3.353372 2.095915 -10.920121 -3.983489 3.486950 38.325098 -0.707214 -0.147446 15.288235 0.000000 0.000000 0.000000 0.635564 8.010049 -19.465508 27.450169 -38.605056 9.778715 20.988656 1.664628 -20.669437 0.000000 0.000000 0.000000 -7.125000 0.000000 0.000000 -7.721365 51.820343 1.303041 0.000000 0.000000 0.000000 -4.907292 1.568962 26.447315 -22.627948 -33.679210 -6.930966 -31.528636 -10.954848 -16.750318 0.000000 0.000000 0.000000 7.125000 0.000000 0.000000 -2.419313 10.545482 -1.937437
-2.257435 24.176436 -5.848082 -96.244935 -86.969948 111.197653 0.000000 0.000000 0.000000 -12.887078 -8.928507 -34.738121 11.278040 18.065548 63.677782 0.254535 1.244352 -10.066569 0.361987 -3.857649 -10.677507 0.000000 0.000000 0.000000 24.168524 13.940309 -43.663833 -7.889781 -16.036432 52.162818 -1.895180 3.214836 -25.220640 -0.145866 -2.461095 6.781892 0.963516 0.759183 5.985248 3.370733 1.059423 1.640334 2.854934 0.493428 -1.711960 -3.294723 1.118786 -8.425985 -3.736826 1.682310 38.957871 -0.901027 -0.873147 14.989018 0.000000 0.000000 0.000000 -0.147294 9.069696 -18.800195 27.843804 -38.971927 10.025366 21.374734 1.281238 -20.756353 0.000000 0.000000 0.000000 -7.125000 0.000000 0.000000 -7.364541 51.978384 1.270855 0.000000 0.000000 0.000000 -4.700777 2.783746 23.924981 -21.127716 -31.977028 -6.117468 -31.401496 -9.334633 -16.187915 0.000000 0.000000 0.000000 7.125000 0.000000 0.000000 -2.408011 11.208882 -1.895674
-2.637198 24.750336 -5.969671 -37.457400 -87.069914 52.435428 0.000000 0.000000 0.000000 -13.245289 -12.012898 -41.426750 13.347183 18.902995 70.199522 1.022140 -3.530674 -18.249297 0.262495 -3.289534 -9.086535 0.000000 0.000000 0.000000 25.290593 9.407859 -37.683138 -5.227453 -13.635026 41.795460 -1.417765 -0.441300 -22.699579 -0.307573 3.122825 -8.660400 0.722042 1.261092 3.983040 3.214519 1.707138 0.926524 2.812018 0.831645 -1.358100 -4.104758 0.533039 -7.250796 -3.305788 0.700723 39.958686 -0.738233 -1.382058 15.208019 0.000000 0.000000 0.000000 -0.970030 10.679313 -17.837408 27.983781 -39.101298 10.113476 21.251264 1.998539 -21.084421 0.000000 0.000000 0.000000 -7.125000 0.000000 0.000000 -7.597127 52.296407 1.372234 0.000000 0.000000 0.000000 -5.060898 2.945336 21.419112 -20.965812 -31.788320 -6.031984 -31.410977 -8.440254 -16.194848 0.000000 0.000000 0.000000 7.125000 0.000000 0.000000 -2.413362 11.199359 -1.900389
-2.976395 24.893568 -5.996280 -5.270192 -87.302576 19.533144 0.000000 0.000000 0.000000 -15.547564 -14.556044 -38.403122 7.286910 15.566205 49.946714 1.701976 -11.420941 -23.563706 0.987950 -6.135638 -17.240572 0.000000 0.000000 0.000000 23.493509 8.697939 -34.670523 -4.939662 -13.315515 40.561347 -1.733026 2.513909 -24.222952 -0.063368 -1.623600 4.466589 0.142368 1.591800 3.494794 2.709730 2.119399 1.032070 2.610059 1.042625 -0.996267 -4.701861 0.291733 -7.022033 -3.211143 0.451897 40.015505 -0.624116 -1.555502 15.190630 0.000000 0.000000 0.000000 -1.611975 11.679450 -16.098509 27.488552 -38.641066 9.802685 21.544119 2.301590 -21.447712 0.000000 0.000000 0.000000 -7.125000 0.000000 0.000000 -7.423694 52.726559 1.417761 0.000000 0.000000 0.000000 -6.156132 3.348256 22.847067 -23.002698 -34.091263 -7.139970 -31.982123 -10.407504 -16.082978 0.000000 0.000000 0.000000 7.125000 0.000000 0.000000 -2.802795 11.224042 -2.206241
-3.232932 24.828373 -5.943956 -64.594431 -88.037464 77.017630 0.000000 0.000000 0.000000 -15.512980 -14.108703 -33.180379 4.946282 13.322937 40.589877 0.423856 -13.138333 -13.872728 0.045328 1.317066 3.622510 0.000000 0.000000 0.000000 25.195688 8.672244 -31.875422 -5.062684 -13.454026 41.092662 -1.827015 4.073910 -24.588556 -0.151587 -2.508239 6.912442 1.697440 1.902448 3.588447 3.299263 2.537330 1.722363 2.338301 1.235265 -0.317599 -3.805492 1.232513 -6.320912 -4.533276 1.967458 40.741505 -1.167702 -1.008191 15.426412 0.000000 0.000000 0.000000 -2.431895 11.713848 -15.495624 25.735433 -36.945973 8.728220 21.749546 2.671129 -21.197165 0.000000 0.000000 0.000000 -7.125000 0.000000 0.000000 -7.132655 52.503512 1.322712 0.000000 0.000000 0.000000 -6.819643 1.614338 23.509482 -23.715860 -34.862362 -7.543523 -31.451079 -11.082868 -16.500340 0.000000 0.000000 0.000000 7.125000 0.000000 0.000000 -2.400805 10.844125 -1.908039
-3.414568 24.778905 -5.870716 -89.727363 -87.721021 101.101750 0.000000 0.000000 0.000000 -17.201864 -13.177468 -28.834502 4.168490 12.381295 37.094492 1.112745 -6.794246 -18.836198 0.042799 1.333975 3.668317 0.000000 0.000000 0.000000 25.634961 8.235003 -30.341902 -5.206802 -13.612963 41.708657 -2.242354 4.391576 -27.308827 -0.052890 -1.480953 4.073271 2.095518 1.536365 3.613240 3.447368 2.042557 1.969832 2.291004 0.984943 -0.053777 -3.118708 1.929507 -6.221225 -5.390240 3.067739 41.334079 -1.544911 -0.609267 15.766957 0.000000 0.000000 0.000000 -3.002752 11.265755 -14.306159 23.836098 -34.990236 7.612417 21.087075 3.617806 -21.558901 0.000000 0.000000 0.000000 -7.125000 0.000000 0.000000 -7.923349 52.758374 1.520619 0.000000 0.000000 0.000000 -5.611633 0.639783 21.488879 -23.591534 -34.728648 -7.472928 -31.890487 -11.384102 -15.630199 0.000000 0.000000 0.000000 7.125000 0.000000 0.000000 -2.800472 11.758842 -2.173635
